<svg width="24" height="24" viewBox="0 0 24 24" fill="none" xmlns="http://www.w3.org/2000/svg">
<path d="M12 2.4375C10.1087 2.4375 8.25991 2.99833 6.68736 4.04907C5.11482 5.09981 3.88917 6.59327 3.16541 8.34059C2.44164 10.0879 2.25227 12.0106 2.62125 13.8656C2.99022 15.7205 3.90096 17.4244 5.2383 18.7617C6.57564 20.099 8.27951 21.0098 10.1345 21.3788C11.9894 21.7477 13.9121 21.5584 15.6594 20.8346C17.4067 20.1108 18.9002 18.8852 19.9509 17.3126C21.0017 15.7401 21.5625 13.8913 21.5625 12C21.5595 9.46478 20.5511 7.03425 18.7584 5.24158C16.9658 3.44891 14.5352 2.44048 12 2.4375ZM12 20.4375C10.3312 20.4375 8.69992 19.9427 7.31238 19.0155C5.92484 18.0884 4.84339 16.7706 4.20477 15.2289C3.56616 13.6871 3.39907 11.9906 3.72463 10.3539C4.05019 8.71721 4.85379 7.21379 6.03379 6.03379C7.2138 4.85378 8.71722 4.05019 10.3539 3.72462C11.9906 3.39906 13.6871 3.56615 15.2289 4.20477C16.7706 4.84338 18.0884 5.92484 19.0155 7.31238C19.9427 8.69992 20.4375 10.3312 20.4375 12C20.435 14.237 19.5453 16.3817 17.9635 17.9635C16.3817 19.5453 14.237 20.435 12 20.4375ZM7.6875 10.125C7.6875 9.93958 7.74249 9.75832 7.8455 9.60415C7.94852 9.44998 8.09493 9.32982 8.26624 9.25886C8.43754 9.18791 8.62604 9.16934 8.8079 9.20551C8.98976 9.24169 9.15681 9.33098 9.28792 9.46209C9.41903 9.5932 9.50832 9.76025 9.54449 9.9421C9.58066 10.124 9.5621 10.3125 9.49114 10.4838C9.42018 10.6551 9.30002 10.8015 9.14585 10.9045C8.99168 11.0075 8.81042 11.0625 8.625 11.0625C8.37636 11.0625 8.13791 10.9637 7.96209 10.7879C7.78628 10.6121 7.6875 10.3736 7.6875 10.125ZM17.0625 10.125C17.0625 10.2742 17.0032 10.4173 16.8978 10.5227C16.7923 10.6282 16.6492 10.6875 16.5 10.6875H14.25C14.1008 10.6875 13.9577 10.6282 13.8523 10.5227C13.7468 10.4173 13.6875 10.2742 13.6875 10.125C13.6875 9.97582 13.7468 9.83274 13.8523 9.72725C13.9577 9.62176 14.1008 9.5625 14.25 9.5625H16.5C16.6492 9.5625 16.7923 9.62176 16.8978 9.72725C17.0032 9.83274 17.0625 9.97582 17.0625 10.125ZM16.2366 14.5313C15.3066 16.14 13.7625 17.0625 12 17.0625C10.2375 17.0625 8.69344 16.14 7.76344 14.5313C7.69619 14.4027 7.68122 14.2531 7.72164 14.1138C7.76206 13.9745 7.85476 13.8561 7.98036 13.7835C8.10597 13.7109 8.25477 13.6897 8.39569 13.7242C8.53661 13.7587 8.65873 13.8463 8.73657 13.9688C9.47157 15.2381 10.6303 15.9375 12 15.9375C13.3697 15.9375 14.5313 15.2381 15.2634 13.9688C15.2986 13.9015 15.347 13.8421 15.4057 13.7941C15.4645 13.7461 15.5323 13.7104 15.6051 13.6893C15.678 13.6681 15.7544 13.6619 15.8297 13.6711C15.905 13.6802 15.9777 13.7045 16.0434 13.7425C16.109 13.7805 16.1664 13.8313 16.2119 13.892C16.2574 13.9527 16.2902 14.022 16.3082 14.0957C16.3263 14.1693 16.3292 14.2459 16.3169 14.3208C16.3046 14.3956 16.2773 14.4672 16.2366 14.5313Z" fill="#5F471D"/>
</svg>
