<svg width="24" height="24" viewBox="0 0 24 24" fill="none" xmlns="http://www.w3.org/2000/svg">
<path d="M21.6652 4.84781C21.1955 4.24406 20.4971 3.9375 19.5933 3.9375C18.0624 3.9375 16.0861 4.97437 14.3058 6.71156C13.6492 7.34365 13.0644 8.04635 12.5621 8.80688V5.25C12.5621 5.10082 12.5028 4.95774 12.3973 4.85225C12.2918 4.74676 12.1488 4.6875 11.9996 4.6875C11.8504 4.6875 11.7073 4.74676 11.6018 4.85225C11.4963 4.95774 11.4371 5.10082 11.4371 5.25V8.80688C10.9365 8.04664 10.3536 7.34395 9.69895 6.71156C7.92051 4.97437 5.94333 3.9375 4.41239 3.9375C3.50395 3.9375 2.80551 4.24406 2.33583 4.84781C1.81739 5.51437 1.61301 6.50625 1.71145 7.87969C1.79676 9.07313 2.0977 10.3669 2.34989 11.3606C2.93864 13.68 4.29708 14.4544 5.32926 14.7056C5.05373 15.1436 4.86717 15.6316 4.78022 16.1416C4.69327 16.6517 4.70764 17.1739 4.82251 17.6785C4.93738 18.183 5.1505 18.66 5.4497 19.0821C5.7489 19.5043 6.12832 19.8634 6.5663 20.1389C7.00427 20.4144 7.49223 20.601 8.00232 20.6879C8.5124 20.7749 9.03461 20.7605 9.53913 20.6457C10.0437 20.5308 10.5206 20.3177 10.9428 20.0185C11.3649 19.7193 11.724 19.3399 11.9996 18.9019C12.556 19.7865 13.4411 20.4139 14.4602 20.646C15.4792 20.8781 16.5487 20.6958 17.4333 20.1394C18.318 19.5829 18.9454 18.6978 19.1774 17.6788C19.4095 16.6598 19.2273 15.5903 18.6708 14.7056C19.7021 14.4591 21.0615 13.68 21.6502 11.3606C22.2699 8.92594 22.7546 6.24844 21.6652 4.84781ZM8.62458 19.6875C7.90989 19.6773 7.22566 19.3964 6.70991 18.9016C6.19416 18.4067 5.88527 17.7346 5.84555 17.021C5.80582 16.3073 6.03821 15.6052 6.49585 15.0561C6.95348 14.507 7.60231 14.152 8.31145 14.0625C8.38532 14.0544 8.45688 14.0319 8.52204 13.9962C8.5872 13.9605 8.64468 13.9123 8.69121 13.8543C8.73774 13.7964 8.77241 13.7299 8.79323 13.6585C8.81405 13.5872 8.82061 13.5125 8.81255 13.4386C8.80448 13.3647 8.78195 13.2932 8.74623 13.228C8.71051 13.1628 8.66231 13.1054 8.60437 13.0588C8.54644 13.0123 8.47991 12.9776 8.40857 12.9568C8.33724 12.936 8.26251 12.9294 8.18864 12.9375C7.49961 13.0145 6.84344 13.2734 6.28739 13.6875C5.44364 13.7166 4.02614 13.3912 3.4402 11.085C3.13551 9.88406 2.32551 6.69469 3.22364 5.53969C3.47301 5.21813 3.86208 5.0625 4.41239 5.0625C5.61989 5.0625 7.38614 6.02625 8.91239 7.51688C10.4705 9.03656 11.4371 10.7428 11.4371 11.9691V16.875C11.4371 17.6209 11.1408 18.3363 10.6133 18.8637C10.0859 19.3912 9.3705 19.6875 8.62458 19.6875ZM20.5599 11.0841C19.9749 13.3903 18.5621 13.7147 17.7183 13.6875C17.1625 13.273 16.5062 13.0141 15.8171 12.9375C15.7432 12.9291 15.6684 12.9354 15.597 12.9559C15.5255 12.9765 15.4588 13.0109 15.4007 13.0572C15.2832 13.1507 15.2077 13.2871 15.1908 13.4363C15.1739 13.5854 15.217 13.7352 15.3105 13.8527C15.404 13.9701 15.5404 14.0456 15.6896 14.0625C16.2314 14.1213 16.7447 14.3358 17.1673 14.6799C17.59 15.0241 17.9039 15.4833 18.0713 16.002C18.2387 16.5207 18.2523 17.0767 18.1105 17.603C17.9688 18.1293 17.6777 18.6033 17.2724 18.9678C16.8671 19.3322 16.365 19.5715 15.8267 19.6568C15.2884 19.7422 14.7369 19.6698 14.2388 19.4485C13.7407 19.2272 13.3173 18.8664 13.0198 18.4098C12.7222 17.9531 12.5633 17.42 12.5621 16.875V11.9691C12.5621 10.7428 13.5296 9.03656 15.0868 7.51688C16.6149 6.02625 18.3811 5.0625 19.5933 5.0625C20.1436 5.0625 20.5308 5.21813 20.7821 5.53875C21.6755 6.69375 20.8655 9.88313 20.5608 11.0841H20.5599Z" fill="#5F471D"/>
</svg>
